<?xml version="1.0" encoding="UTF-8"?>
<svg version="1.1" xmlns="http://www.w3.org/2000/svg" width="500" height="500">
<path d="M0 0 C165 0 330 0 500 0 C500 165 500 330 500 500 C335 500 170 500 0 500 C0 335 0 170 0 0 Z " fill="#1E1E1E" transform="translate(0,0)"/>
<path d="M0 0 C15.51 0 31.02 0 47 0 C48.588125 4.104375 50.17625 8.20875 51.8125 12.4375 C60.53027654 34.96274639 69.26624875 57.48094405 78 80 C88.52162982 53.40593323 98.75151392 26.70026736 109 0 C124.51 0 140.02 0 156 0 C156 46.86 156 93.72 156 142 C145.11 142 134.22 142 123 142 C122.67 113.29 122.34 84.58 122 55 C104.47932586 97.99159337 104.47932586 97.99159337 87 141 C81.06 141 75.12 141 69 141 C68.30777344 139.26363281 67.61554688 137.52726563 66.90234375 135.73828125 C60.46260064 119.60317194 53.97127906 103.48975311 47.42944336 87.39575195 C42.91356268 76.278932 38.45653025 65.14132562 34 54 C33.505 97.56 33.505 97.56 33 142 C20.625 142.495 20.625 142.495 8 143 C7.34 143.66 6.68 144.32 6 145 C3.63833618 145.21600342 3.63833618 145.21600342 0.63916016 145.16699219 C-1.04432022 145.14641754 -1.04432022 145.14641754 -2.7618103 145.12542725 C-3.98252228 145.099505 -5.20323425 145.07358276 -6.4609375 145.046875 C-7.71701813 145.02659241 -8.97309875 145.00630981 -10.26724243 144.9854126 C-12.9357137 144.93973198 -15.60374434 144.88997753 -18.27197266 144.83349609 C-21.65827251 144.76230203 -25.04457768 144.70789067 -28.43126488 144.65903854 C-31.69132338 144.60978698 -34.95110227 144.54647204 -38.2109375 144.484375 C-39.41140717 144.46654968 -40.61187683 144.44872437 -41.84872437 144.43035889 C-56.22060462 144.10246231 -69.54470096 142.42632236 -80.4375 132.1875 C-88.30560765 123.61600643 -91.39170053 114.19912457 -91.3125 102.6875 C-91.30758545 101.84662842 -91.3026709 101.00575684 -91.29760742 100.1394043 C-91.12504159 90.99695511 -89.37556749 84.1387023 -83.79296875 76.7890625 C-82.75302284 74.99193851 -82.75302284 74.99193851 -83.6796875 73.0390625 C-85.0581306 70.91022433 -86.47357629 68.82109818 -87.9375 66.75 C-94.44968 57.07703019 -96.59341285 45.92581267 -94.5390625 34.41796875 C-91.25162889 22.13843734 -84.58564747 14.14327201 -73.8125 7.8125 C-64.13575825 2.28075629 -53.47688825 1.5619277 -42.578125 1.70703125 C-40.73912628 1.71339851 -40.73912628 1.71339851 -38.86297607 1.71989441 C-34.99174955 1.73653146 -31.12106609 1.7741559 -27.25 1.8125 C-24.60677841 1.82756617 -21.96354857 1.84125117 -19.3203125 1.85351562 C-12.88002668 1.8863858 -6.44005216 1.93643358 0 2 C0 1.34 0 0.68 0 0 Z " fill="#FCFCFC" transform="translate(208,173)"/>
<path d="M0 0 C0.71336517 0.00045822 1.42673035 0.00091644 2.16171265 0.00138855 C3.66934883 0.00439156 5.17698246 0.01221883 6.68457031 0.0246582 C8.90702311 0.04253508 11.12904634 0.0451697 13.3515625 0.04492188 C21.89000224 0.06710784 30.40255192 0.3337767 38.93115234 0.7409668 C39.93748215 0.78790428 40.94381195 0.83484177 41.9806366 0.8832016 C44.43246371 0.99773426 46.88422509 1.11351084 49.3359375 1.23046875 C49.35926652 17.51117178 49.37691669 33.79186942 49.38774967 50.07258511 C49.39291262 57.63148494 49.3999553 65.1903744 49.41137695 72.74926758 C49.42132382 79.33526541 49.42779093 85.92125573 49.43002599 92.50726086 C49.4313331 95.99659946 49.43441892 99.48591659 49.44166756 102.97524834 C49.44968148 106.86428107 49.44992864 110.75329253 49.44946289 114.64233398 C49.45305817 115.80758102 49.45665344 116.97282806 49.46035767 118.17338562 C49.458983 119.22652954 49.45760834 120.27967346 49.45619202 121.36473083 C49.45711381 122.28560203 49.4580356 123.20647322 49.45898533 124.1552496 C49.3359375 126.23046875 49.3359375 126.23046875 48.3359375 127.23046875 C46.04954433 127.31372837 43.76050578 127.3250378 41.47265625 127.30859375 C40.76147141 127.30418274 40.05028656 127.29977173 39.31755066 127.29522705 C36.99027496 127.27877598 34.66314528 127.25457685 32.3359375 127.23046875 C30.77946085 127.21923212 29.22298296 127.2081646 27.66650391 127.19726562 C23.64629299 127.16423432 19.62724597 127.10068808 15.60766602 127.02294922 C13.96291853 126.99453801 12.31802939 126.97342515 10.6730957 126.95947266 C-2.32420349 126.84375825 -16.48614763 126.50959544 -26.2421875 116.6328125 C-34.73616347 107.25232933 -35.38441573 97.35838733 -34.83886719 85.20507812 C-34.18536647 77.82307557 -29.69804277 72.64006703 -24.95703125 67.2734375 C-23.44885328 65.33224426 -23.44885328 65.33224426 -23.796875 63.1015625 C-24.95152578 60.61022141 -26.84109833 59.50126343 -28.96875 57.8515625 C-35.25426921 51.84121579 -37.74640188 44.44029181 -38.00756836 35.9855957 C-38.14680933 25.46264837 -36.68824984 18.4499428 -29.4765625 10.41796875 C-21.31339418 2.89365708 -10.89721918 -0.03486126 0 0 Z " fill="#101010" transform="translate(159.6640625,182.76953125)"/>
<path d="M0 0 C2.97 0 5.94 0 9 0 C9 56.43 9 112.86 9 171 C6.03 171 3.06 171 0 171 C0 114.57 0 58.14 0 0 Z " fill="#BC9033" transform="translate(380,160)"/>
<path d="M0 0 C0.71929687 -0.01224609 1.43859375 -0.02449219 2.1796875 -0.03710938 C4.03795986 -0.04232924 5.89577197 0.06485487 7.75 0.1875 C10.31572747 2.75322747 10.00790742 4.47894471 10.05354309 7.9783783 C10.05263168 8.7679744 10.05172028 9.5575705 10.05078125 10.37109375 C10.05506638 11.1824025 10.0593515 11.99371124 10.06376648 12.8296051 C10.069514 14.54695705 10.07000694 16.26433335 10.06567383 17.98168945 C10.0625165 20.6112622 10.08595748 23.23970731 10.11132812 25.86914062 C10.11360132 27.53645691 10.11430452 29.20377623 10.11328125 30.87109375 C10.122491 31.65866562 10.13170074 32.44623749 10.14118958 33.25767517 C10.09520713 38.67687592 10.09520713 38.67687592 8.40136719 41.18237305 C3.68750696 44.05152777 -3.85692237 42.61865505 -9.046875 41.68359375 C-16.08478725 39.7711176 -22.10071107 36.88788866 -26.6875 31.125 C-29.28420856 26.2431879 -29.96352815 21.72488045 -29.25 16.1875 C-27.34755604 10.28448816 -24.2914674 6.68566105 -19.25 3.1875 C-13.16427586 0.14463793 -6.6698965 0.00610796 0 0 Z " fill="#F4F4F4" transform="translate(176.25,197.8125)"/>
<path d="M0 0 C0.67224609 -0.01224609 1.34449219 -0.02449219 2.03710938 -0.03710938 C5.73628237 -0.04812975 7.27721933 0.08064622 10.4375 2.1875 C10.74168469 4.9896341 10.85750375 7.56696292 10.8359375 10.37109375 C10.83880768 11.1824025 10.84167786 11.99371124 10.84463501 12.8296051 C10.84667813 14.54697364 10.84113092 16.26436532 10.82861328 17.98168945 C10.81258309 20.61136992 10.82844208 23.2395086 10.84765625 25.86914062 C10.84567345 27.53646173 10.84182902 29.20378187 10.8359375 30.87109375 C10.84504654 32.05245155 10.84504654 32.05245155 10.8543396 33.25767517 C10.78448656 38.68021298 10.78448656 38.68021298 9.07299805 41.18237305 C4.560878 43.95538368 -2.34776575 42.56287869 -7.328125 41.71875 C-13.06276443 40.24111285 -17.78123378 37.84962937 -21.5625 33.1875 C-24.76809686 27.00296464 -24.25058863 19.93936968 -23.5625 13.1875 C-21.94574727 8.3516771 -19.31600129 5.39169044 -15 2.75 C-9.77509036 0.37504107 -5.77606838 0.02823103 0 0 Z " fill="#F5F5F5" transform="translate(174.5625,251.8125)"/>
<path d="M0 0 C3.63 0 7.26 0 11 0 C12.57493761 1.57493761 12.13771278 3.15059523 12.15148926 5.33856201 C12.15983292 6.27509613 12.16817657 7.21163025 12.17677307 8.17654419 C12.1830497 9.73029251 12.1830497 9.73029251 12.18945312 11.31542969 C12.19774643 12.39994415 12.20603973 13.48445862 12.21458435 14.60183716 C12.23203149 16.96615867 12.24718537 19.33049793 12.26036072 21.69484711 C12.28132298 25.43489684 12.30835302 29.174858 12.33703613 32.91485596 C12.39685838 40.85987027 12.44895464 48.80492594 12.5 56.75 C12.55911911 65.94009514 12.62153988 75.1301495 12.69187927 84.32016754 C12.71846799 88.00776296 12.73927819 91.69536261 12.7598877 95.38299561 C12.7764934 97.64432988 12.79336548 99.90566222 12.81054688 102.16699219 C12.8168235 103.70859512 12.8168235 103.70859512 12.82322693 105.28134155 C12.83157059 106.22915497 12.83991425 107.17696838 12.84851074 108.15350342 C12.85366447 108.97352215 12.85881821 109.79354088 12.86412811 110.63840866 C13.00972249 113.16898668 13.47590275 115.52291496 14 118 C14.08754103 119.75225113 14.12783946 121.50728293 14.12939453 123.26171875 C14.13254669 124.28628174 14.13569885 125.31084473 14.13894653 126.36645508 C14.1369223 127.4623999 14.13489807 128.55834473 14.1328125 129.6875 C14.13424759 131.39039185 14.13424759 131.39039185 14.13571167 133.12768555 C14.13639134 135.52490291 14.13455191 137.92212213 14.13037109 140.31933594 C14.12501989 143.98637022 14.13032334 147.65328202 14.13671875 151.3203125 C14.13605793 153.65104194 14.13477669 155.9817713 14.1328125 158.3125 C14.13483673 159.40844482 14.13686096 160.50438965 14.13894653 161.63354492 C14.13579437 162.65810791 14.13264221 163.6826709 14.12939453 164.73828125 C14.12859894 165.63587158 14.12780334 166.53346191 14.12698364 167.45825195 C13.99556816 170.08870914 13.6947134 172.4582734 13 175 C9.1020096 177.6798684 5.41483779 176.89816738 0.98828125 176.19140625 C-1.07319733 175.81540558 -1.07319733 175.81540558 -3 177 C-3.02335263 164.6023467 -3.04103033 152.20469878 -3.05181217 139.80702782 C-3.05699151 134.04793893 -3.06399716 128.28886528 -3.07543945 122.52978516 C-3.08644685 116.95356729 -3.09231391 111.37736392 -3.09487724 105.80113602 C-3.0966998 103.69250893 -3.1002571 101.58388247 -3.10573006 99.47526169 C-3.14103171 85.28691472 -2.76585301 71.16809065 -2 57 C-1.67 57 -1.34 57 -1 57 C-0.67 38.19 -0.34 19.38 0 0 Z M1 1 C1 57.43 1 113.86 1 172 C3.97 172 6.94 172 10 172 C10 115.57 10 59.14 10 1 C7.03 1 4.06 1 1 1 Z " fill="#452F09" transform="translate(379,159)"/>
<path d="M0 0 C0.33 0 0.66 0 1 0 C2.21808072 16.79166263 2.1322969 33.58403464 2.10139394 50.40813231 C2.09506036 54.44927659 2.09454881 58.49042196 2.09336853 62.53157043 C2.09028427 70.15246087 2.08211086 77.77333662 2.07201904 85.39422065 C2.06076664 94.08373211 2.05532466 102.77324433 2.05032361 111.46276128 C2.03992516 129.30851578 2.02238317 147.1542567 2 165 C0.68 165 -0.64 165 -2 165 C-1.89290605 143.63429193 -1.78017113 122.26862032 -1.66066074 100.90297794 C-1.60530658 90.98326374 -1.55182104 81.06354594 -1.50268555 71.14379883 C-1.45987051 62.50100762 -1.4135994 53.85824312 -1.36312145 45.21549314 C-1.33649884 40.63629105 -1.31164532 36.05709433 -1.29092598 31.4778614 C-1.27139294 27.17285697 -1.24725936 22.86790349 -1.21950912 18.56294441 C-1.21012097 16.97823 -1.20245208 15.39350438 -1.19658089 13.80877304 C-1.18834953 11.65456846 -1.1740816 9.50048857 -1.15821838 7.34632874 C-1.15176583 6.13785813 -1.14531328 4.92938753 -1.1386652 3.68429661 C-1 1 -1 1 0 0 Z " fill="#C99011" transform="translate(384,164)"/>
<path d="M0 0 C2.371875 0.061875 4.74375 0.12375 7.1875 0.1875 C7.1875 8.1075 7.1875 16.0275 7.1875 24.1875 C-4.10463483 24.1875 -4.10463483 24.1875 -7.75 22.375 C-8.46027344 22.03855469 -9.17054688 21.70210937 -9.90234375 21.35546875 C-13.34309382 19.25161543 -14.62324246 17.89045659 -15.6875 13.9375 C-15.83664078 9.46327652 -15.04260066 7.05300781 -12.8125 3.1875 C-8.71971915 -0.06419561 -5.0242084 -0.18604114 0 0 Z " fill="#111111" transform="translate(170.8125,206.8125)"/>
<path d="M0 0 C0 8.25 0 16.5 0 25 C-12 25 -12 25 -15.1875 23.1875 C-19.05424557 18.52073811 -18.46437281 12.76666597 -18 7 C-16.72953886 3.72354758 -15.86290196 2.54911943 -12.9375 0.6875 C-10 0 -10 0 0 0 Z " fill="#141414" transform="translate(177,260)"/>
<path d="M0 0 C0.33 0 0.66 0 1 0 C1.84193009 38.34335062 2.13442814 76.64868588 2 115 C7.94 114.505 7.94 114.505 14 114 C14 94.86 14 75.72 14 56 C15.92816377 59.85632754 16.24927655 61.14692917 16.24291992 65.23999023 C16.24599655 66.28464951 16.24907318 67.32930878 16.25224304 68.40562439 C16.24505753 69.52860428 16.23787201 70.65158417 16.23046875 71.80859375 C16.22978142 73.54690208 16.22978142 73.54690208 16.2290802 75.32032776 C16.22605981 77.77060978 16.21817988 80.22088992 16.20581055 82.67114258 C16.18758749 86.41950293 16.18530071 90.16761566 16.18554688 93.91601562 C16.18063016 96.29687713 16.17480117 98.67773697 16.16796875 101.05859375 C16.16685593 102.17954941 16.1657431 103.30050507 16.16459656 104.45542908 C16.15821671 105.50324051 16.15183685 106.55105194 16.14526367 107.63061523 C16.13954597 109.00817238 16.13954597 109.00817238 16.13371277 110.41355896 C15.99696365 113.05873289 15.69953989 115.44413616 15 118 C11.1020096 120.6798684 7.41483779 119.89816738 2.98828125 119.19140625 C0.92680267 118.81540558 0.92680267 118.81540558 -1 120 C-1.02335263 107.6023467 -1.04103033 95.20469878 -1.05181217 82.80702782 C-1.05699151 77.04793893 -1.06399716 71.28886528 -1.07543945 65.52978516 C-1.08644685 59.95356729 -1.09231391 54.37736392 -1.09487724 48.80113602 C-1.0966998 46.69250893 -1.1002571 44.58388247 -1.10573006 42.47526169 C-1.14103171 28.28691472 -0.76585301 14.16809065 0 0 Z " fill="#362E20" transform="translate(377,216)"/>
<path d="M0 0 C0.66 0 1.32 0 2 0 C2 36.96 2 73.92 2 112 C1.67 112 1.34 112 1 112 C0.71529355 98.13541567 0.43693669 84.27071632 0.16588497 70.40585804 C0.03984262 63.96801925 -0.08823527 57.53023432 -0.22094727 51.0925293 C-0.34892082 44.88106103 -0.47157072 38.66950848 -0.59051323 32.45786095 C-0.63685528 30.08674007 -0.68512307 27.71565604 -0.73533821 25.34461403 C-0.80528458 22.02645016 -0.86841414 18.70822192 -0.92993164 15.38989258 C-0.95222839 14.40733994 -0.97452515 13.42478729 -0.99749756 12.41246033 C-1.0129512 11.50527252 -1.02840485 10.59808472 -1.04432678 9.66340637 C-1.05999726 8.87896054 -1.07566774 8.09451471 -1.09181309 7.2862978 C-0.99087297 4.77272174 -0.55179823 2.45091385 0 0 Z " fill="#2A1E08" transform="translate(377,160)"/>
<path d="M0 0 C1.92816377 3.85632754 2.24927655 5.14692917 2.24291992 9.23999023 C2.24599655 10.28464951 2.24907318 11.32930878 2.25224304 12.40562439 C2.24505753 13.52860428 2.23787201 14.65158417 2.23046875 15.80859375 C2.22978142 17.54690208 2.22978142 17.54690208 2.2290802 19.32032776 C2.22605981 21.77060978 2.21817988 24.22088992 2.20581055 26.67114258 C2.18758749 30.41950293 2.18530071 34.16761566 2.18554688 37.91601562 C2.18063016 40.29687713 2.17480117 42.67773697 2.16796875 45.05859375 C2.16685593 46.17954941 2.1657431 47.30050507 2.16459656 48.45542908 C2.15821671 49.50324051 2.15183685 50.55105194 2.14526367 51.63061523 C2.14145187 52.54898666 2.13764008 53.46735809 2.13371277 54.41355896 C1.99683567 57.06120843 1.70853887 59.44368215 1 62 C-3.04335438 64.61628813 -6.43211048 63.89566461 -11 63 C-11.33 61.68 -11.66 60.36 -12 59 C-6.06 58.505 -6.06 58.505 0 58 C0 38.86 0 19.72 0 0 Z " fill="#433A2D" transform="translate(391,272)"/>
<path d="M0 0 C0.66 0.66 1.32 1.32 2 2 C1 5 1 5 -1 6 C-0.67 7.32 -0.34 8.64 0 10 C-1.98 9.34 -3.96 8.68 -6 8 C-5.34 5.69 -4.68 3.38 -4 1 C-2.125 0.375 -2.125 0.375 0 0 Z " fill="#0B0B0B" transform="translate(166,262)"/>
<path d="M0 0 C0.99 0.33 1.98 0.66 3 1 C2.53328373 6.41390868 1.75702189 10.20517932 -1 15 C-1.33 15 -1.66 15 -2 15 C-2.33 12.03 -2.66 9.06 -3 6 C-1.68 5.34 -0.36 4.68 1 4 C0.67 2.68 0.34 1.36 0 0 Z " fill="#141414" transform="translate(299,208)"/>
<path d="M0 0 C2 2 2 2 2.125 5.625 C2.08375 6.73875 2.0425 7.8525 2 9 C1.34 9 0.68 9 0 9 C-0.33 9.99 -0.66 10.98 -1 12 C-1.99 12 -2.98 12 -4 12 C-3.52309796 10.37433394 -3.04340334 8.74948689 -2.5625 7.125 C-2.29566406 6.22007812 -2.02882813 5.31515625 -1.75390625 4.3828125 C-1 2 -1 2 0 0 Z " fill="#2E2E2E" transform="translate(325,238)"/>
<path d="M0 0 C1.32 0.33 2.64 0.66 4 1 C4 4 4 4 2.5625 5.5625 C2.046875 6.036875 1.53125 6.51125 1 7 C0.67 7.66 0.34 8.32 0 9 C-1.32 8.34 -2.64 7.68 -4 7 C-4 6.01 -4 5.02 -4 4 C-3.34 4 -2.68 4 -2 4 C-1.34 2.68 -0.68 1.36 0 0 Z " fill="#0E0E0E" transform="translate(316,168)"/>
<path d="M0 0 C2.00720923 0.28674418 4.0085944 0.61866701 6 1 C6 1.99 6 2.98 6 4 C4.35 4.33 2.7 4.66 1 5 C0.34 3.68 -0.32 2.36 -1 1 C-0.67 0.67 -0.34 0.34 0 0 Z " fill="#0F0F0F" transform="translate(132,176)"/>
<path d="M0 0 C0.66 0 1.32 0 2 0 C1.25 6.75 1.25 6.75 -1 9 C-1.66 8.34 -2.32 7.68 -3 7 C-2.34 7 -1.68 7 -1 7 C-0.67 4.69 -0.34 2.38 0 0 Z M-5 7 C-4.01 7.495 -4.01 7.495 -3 8 C-3.33 8.99 -3.66 9.98 -4 11 C-4.33 9.68 -4.66 8.36 -5 7 Z " fill="#0F0F0F" transform="translate(310,184)"/>
<path d="M0 0 C0.66 0 1.32 0 2 0 C2.36666667 5.5 2.36666667 5.5 0.625 7.875 C-1 9 -1 9 -3 9 C-2.01 6.03 -1.02 3.06 0 0 Z " fill="#323232" transform="translate(317,258)"/>
<path d="M0 0 C1.32 0.33 2.64 0.66 4 1 C-0.75 6.75 -0.75 6.75 -3 9 C-2.67 6.69 -2.34 4.38 -2 2 C-1.34 2 -0.68 2 0 2 C0 1.34 0 0.68 0 0 Z " fill="#212121" transform="translate(151,202)"/>
<path d="M0 0 C0.66 0 1.32 0 2 0 C1.67 1.98 1.34 3.96 1 6 C0.34 6 -0.32 6 -1 6 C-1 6.66 -1 7.32 -1 8 C-1.66 8 -2.32 8 -3 8 C-1.125 1.125 -1.125 1.125 0 0 Z " fill="#2C2C2C" transform="translate(309,279)"/>
<path d="M0 0 C1.67542976 0.28604898 3.34385343 0.61781233 5 1 C4.01 1.66 3.02 2.32 2 3 C2.33 3.66 2.66 4.32 3 5 C1.125 6.0625 1.125 6.0625 -1 7 C-1.66 6.67 -2.32 6.34 -3 6 C-1.125 1.125 -1.125 1.125 0 0 Z " fill="#141414" transform="translate(156,251)"/>
<path d="M0 0 C0.99 0.33 1.98 0.66 3 1 C2.34 2.98 1.68 4.96 1 7 C0.01 7 -0.98 7 -2 7 C-1.125 2.25 -1.125 2.25 0 0 Z " fill="#171717" transform="translate(307,192)"/>
<path d="M0 0 C0.99 0.33 1.98 0.66 3 1 C2.67 1.99 2.34 2.98 2 4 C1.34 4 0.68 4 0 4 C-0.33 4.66 -0.66 5.32 -1 6 C-1.66 5.34 -2.32 4.68 -3 4 C-3 3.01 -3 2.02 -3 1 C-2.01 1.33 -1.02 1.66 0 2 C0 1.34 0 0.68 0 0 Z " fill="#070707" transform="translate(149,200)"/>
<path d="M0 0 C0.66 0 1.32 0 2 0 C1.45276317 3.37462715 0.9451 5.08235 -1 8 C-1.66 7.67 -2.32 7.34 -3 7 C-2.67 5.35 -2.34 3.7 -2 2 C-1.34 2 -0.68 2 0 2 C0 1.34 0 0.68 0 0 Z " fill="#161616" transform="translate(259,272)"/>
<path d="M0 0 C0.99 0.33 1.98 0.66 3 1 C1.35 2.65 -0.3 4.3 -2 6 C-2.99 5.67 -3.98 5.34 -5 5 C-3.35 3.35 -1.7 1.7 0 0 Z " fill="#E8E8E8" transform="translate(129,184)"/>
<path d="M0 0 C1.32 0.66 2.64 1.32 4 2 C3.67 3.32 3.34 4.64 3 6 C1.68 5.67 0.36 5.34 -1 5 C-0.67 3.35 -0.34 1.7 0 0 Z " fill="#1B1B1B" transform="translate(128,258)"/>
<path d="M0 0 C1.65 0 3.3 0 5 0 C5 1.32 5 2.64 5 4 C5.99 4.33 6.98 4.66 8 5 C5.125 4.75 5.125 4.75 2 4 C0.625 1.9375 0.625 1.9375 0 0 Z " fill="#090909" transform="translate(162,225)"/>
<path d="M0 0 C-1.36983503 3.16115776 -1.9890638 3.9927092 -5 6 C-5.66 5.01 -6.32 4.02 -7 3 C-2.25 0 -2.25 0 0 0 Z " fill="#090909" transform="translate(127,184)"/>
<path d="M0 0 C0.99 0 1.98 0 3 0 C2.1875 2.4375 2.1875 2.4375 1 5 C0.01 5.33 -0.98 5.66 -2 6 C-1.49396008 3.83125748 -1.00016187 2.00032373 0 0 Z " fill="#151515" transform="translate(123,246)"/>
</svg>
